<svg width="129" height="36" viewBox="0 0 129 36" fill="none" xmlns="http://www.w3.org/2000/svg">
<g clip-path="url(#clip0_192_159)">
<path fill-rule="evenodd" clip-rule="evenodd" d="M126.001 35.3013C126.388 34.499 126.419 33.6041 126.674 32.771C126.888 32.0407 126.296 32.2567 125.97 32.2567C121.882 32.2361 117.804 32.2361 113.716 32.2258C85.4658 32.195 57.2157 32.1744 28.9657 32.1435C27.8238 32.1435 27.834 32.1435 28.252 31.1149C32.2892 20.9319 36.3264 10.7591 40.3432 0.576006C40.4044 0.421717 40.6796 0.23657 40.384 0.0411377C34.5321 0.0411377 28.6802 0.0411377 22.8385 0.0411377C22.7672 0.308572 22.706 0.586292 22.6143 0.853726C21.2583 4.76238 19.9024 8.67103 18.5465 12.59C15.9468 20.0678 13.3573 27.5457 10.7678 35.0236C10.727 35.1162 10.6862 35.2087 10.6454 35.3013H126.001Z" fill="#FFEA00" stroke="#FFEA00" stroke-width="0.254452"/>
<path fill-rule="evenodd" clip-rule="evenodd" d="M0.0937422 34.7356C0.0427677 34.9619 0.0325728 35.1573 0.0427677 35.3013H6.28204C6.31263 35.1779 6.34321 35.0545 6.38399 34.931C10.462 23.5959 14.5399 12.2608 18.6077 0.915442C18.6994 0.648008 18.9849 0.370288 18.7198 0.0411377C16.5687 0.0411377 14.4176 0.0411377 12.2664 0.0411377C12.1849 0.308572 12.1033 0.586292 12.0116 0.853726C8.23946 11.7671 4.45716 22.6805 0.674851 33.5938C0.532123 33.9847 0.572902 34.5093 0.0937422 34.7356Z" fill="#FFEA00" stroke="#FFEA00" stroke-width="0.254452"/>
<path fill-rule="evenodd" clip-rule="evenodd" d="M70.306 2.9418C70.0001 2.9418 69.7351 2.9418 69.47 2.9418C63.506 2.9418 57.542 2.9418 51.5677 2.93152C51.1498 2.93152 50.742 2.98295 50.3546 3.14752C46.8577 4.61841 44.2172 6.88132 43.5138 10.9031C43.2487 12.446 43.3507 13.9786 43.9522 15.4701C44.8697 17.7227 46.5213 18.9159 48.9069 18.9364C52.5159 18.9776 56.1249 18.9879 59.7339 19.0084C61.2937 19.0187 61.8238 19.3479 61.9156 20.4073C62.0277 21.6931 61.2019 22.8039 59.9378 23.0199C59.5605 23.0817 59.1629 23.0817 58.7755 23.0817C53.7087 23.0817 48.6316 23.0919 43.5648 23.0714C42.9531 23.0714 42.6472 23.1948 42.5453 23.8531C42.2802 25.6223 41.9845 27.3915 41.6685 29.1606C41.5768 29.6749 41.6889 29.8395 42.2292 29.8395C48.1932 29.8189 54.1674 29.9835 60.1213 29.7675C63.088 29.6544 65.4022 27.8235 67.0232 25.2623C68.3893 23.1022 69.0826 20.7673 68.3485 18.165C67.6247 15.6552 65.3411 13.8758 62.7821 13.8655C59.2343 13.8552 55.6865 13.8552 52.1387 13.8449C51.0172 13.8346 50.0895 13.2483 49.8754 12.4254C49.6307 11.4997 50.1812 10.4197 51.1905 9.87452C51.894 9.49394 52.6586 9.40137 53.4436 9.41166C58.2964 9.44251 63.1593 9.46309 68.0223 9.55566C68.8889 9.56595 69.1132 9.22651 69.2355 8.46535C69.5515 6.64474 69.9288 4.83442 70.306 2.9418Z" fill="#FFEA00" stroke="#FFEA00" stroke-width="0.254452"/>
<path fill-rule="evenodd" clip-rule="evenodd" d="M99.3003 2.93143C96.4559 2.93143 93.744 2.952 91.0322 2.92114C90.5327 2.92114 90.3695 3.24001 90.1656 3.55887C88.3 6.42865 86.4445 9.28814 84.5788 12.1476C84.3953 12.4356 84.2934 12.8471 83.8142 12.7956C83.2943 12.7442 83.3656 12.2916 83.2739 11.9728C82.4583 9.18528 81.6733 6.3875 80.8883 3.58973C80.7863 3.25029 80.7354 2.96229 80.2766 2.96229C77.5953 2.98286 74.9141 2.97257 72.1003 2.97257C72.61 4.17603 73.079 5.27662 73.5582 6.37722C75.3525 10.4813 77.1366 14.5854 78.9411 18.6792C79.145 19.1421 79.094 19.5638 79.0226 20.0061C78.5231 22.9479 78.0439 25.8793 77.4934 28.8005C77.3507 29.5823 77.4934 29.8189 78.2886 29.7777C79.9605 29.6851 81.6325 29.6543 83.2943 29.6646C83.8856 29.6749 84.1303 29.5103 84.222 28.9034C84.64 26.1674 85.109 23.4519 85.527 20.7261C85.6187 20.1398 85.8838 19.7078 86.2202 19.2861C90.5123 13.9477 94.7941 8.59898 99.076 3.26058C99.127 3.19886 99.1677 3.12686 99.3003 2.93143Z" fill="#FFEA00" stroke="#FFEA00" stroke-width="0.254452"/>
<path fill-rule="evenodd" clip-rule="evenodd" d="M117.488 2.94171C115.316 2.94171 113.176 2.952 111.035 2.92114C110.586 2.92114 110.576 3.15772 110.525 3.47658C110.015 6.28464 109.505 9.08242 108.996 11.8905C107.976 17.4757 106.967 23.061 105.947 28.636C105.754 29.7263 105.743 29.7263 106.783 29.7366C113.379 29.7469 119.976 29.7469 126.561 29.7777C127.214 29.788 127.489 29.6234 127.622 28.9343C127.999 27.0417 128.478 25.1593 128.947 23.133C127.815 23.133 126.755 23.1433 125.685 23.133C121.953 23.1227 118.232 23.0816 114.501 23.1021C113.787 23.1021 113.522 23.0301 113.695 22.1764C114.99 15.8711 116.214 9.55557 117.457 3.25029C117.478 3.168 117.478 3.08572 117.488 2.94171Z" fill="#FFEA00" stroke="#FFEA00" stroke-width="0.254452"/>
<path fill-rule="evenodd" clip-rule="evenodd" d="M104.071 2.90066C103.123 2.90066 102.165 2.91094 101.207 2.89037C100.799 2.88009 100.636 3.03438 100.554 3.43553C99.5551 8.98993 98.5356 14.5443 97.5162 20.0987C96.9962 22.9685 96.4763 25.8383 95.9156 28.6875C95.7524 29.4795 95.8748 29.7367 96.7311 29.7058C98.2808 29.6441 99.8304 29.6647 101.38 29.7778C102.175 29.8395 102.389 29.5104 102.522 28.8212C103.205 25.18 103.919 21.5491 104.622 17.9181C105.54 13.1454 106.457 8.38306 107.405 3.62067C107.517 3.06523 107.446 2.8698 106.844 2.90066C105.927 2.95209 104.999 2.92123 104.071 2.92123V2.90066Z" fill="#FFEA00" stroke="#FFEA00" stroke-width="0.254452"/>
</g>
<defs>
<clipPath id="clip0_192_159">
<rect width="129" height="35.3425" fill="white"/>
</clipPath>
</defs>
</svg>
